PathFileType	4	(X/Y/Z)	8_coords_data.trc
DataRate	CameraRate	NumFrames	NumMarkers	Units	OrigDataRate	OrigDataStartFrame	OrigNumFrames
30.0	30.0	8	21	m	30.0	23	55
Frame#	Time	THUMB_TIP	THUMB_IP	THUMB_MCP	THUMB_CMC	INDEX_TIP	INDEX_DIP	INDEX_PIP	INDEX_MCP	MIDDLE_TIP	MIDDLE_DIP	MIDDLE_PIP	MIDDLE_MCP	RING_TIP	RING_DIP	RING_PIP	RING_MCP	PINKY_TIP	PINKY_DIP	PINKY_PIP	PINKY_MCP	WRIST
X1	Y1	Z1	X2	Y2	Z2	X3	Y3	Z3	X4	Y4	Z4	X5	Y5	Z5	X6	Y6	Z6	X7	Y7	Z7	X8	Y8	Z8	X9	Y9	Z9	X10	Y10	Z10	X11	Y11	Z11	X12	Y12	Z12	X13	Y13	Z13	X14	Y14	Z14	X15	Y15	Z15	X16	Y16	Z16	X17	Y17	Z17	X18	Y18	Z18	X19	Y19	Z19	X20	Y20	Z20	X21	Y21	Z21
21	0.7333333333333302	0.5265729024845179	-0.010388414249221212	-0.1422445841316568	0.5043434554315226	-0.015857077204053938	-0.14025827871593627	0.4805369596306138	-0.023310992427111432	-0.12164350217876596	0.4728279651387699	-0.028620806619323313	-0.07802851304465169	0.5659663439570459	0.007927778658689766	-0.15243160109626347	0.5532846057888164	0.01979368964627981	-0.14729607060106975	0.5329494312025438	0.03133841185962749	-0.13806514992312824	0.4989616297901952	0.015900645304889438	-0.11756781319475884	0.5866331582029258	0.016701676368265805	-0.1391652916727854	0.5727425646921044	0.025593478614717724	-0.13168282785883245	0.5488602634165252	0.03629385780904015	-0.11885523568881923	0.5114601943927976	0.021515682399888214	-0.09938761411871594	0.5925084666286836	0.012621138848189384	-0.11751122603978331	0.5794452861989495	0.02141646665471164	-0.10873651659524736	0.5593065749861933	0.030607092220162002	-0.0973284189709761	0.5236225450234948	0.017996360880796147	-0.0831037820790349	0.5939898453397474	0.002608734418009462	-0.09044481638729779	0.5806181745985828	0.010142776888195426	-0.08286612087637274	0.5621794896915868	0.016123036575052097	-0.07479993144280023	0.5287788938689741	0.006185719300563108	-0.06549759974152147	0.462283081001861	-0.023011742144276925	-0.051989820119430985
22	0.7666666666666633	0.5267243827669859	-0.010499141171475102	-0.1420848600465156	0.5044782239938298	-0.015928459742807988	-0.1401793628173098	0.48061411409052257	-0.02336410626882568	-0.12163117101155713	0.4728499556604845	-0.02862099544757568	-0.07801955604449123	0.5658891069631585	0.007794139265253852	-0.1523293141682457	0.5532597780067707	0.01972632458860213	-0.14721824739890915	0.5329603018921587	0.031361302739919994	-0.1380221402936906	0.4989522416661506	0.015917057275804836	-0.11756332273967812	0.5865732823957845	0.01659821877492329	-0.13912668038164044	0.5727201249983604	0.025556812639094817	-0.1316544902007752	0.5488567727025783	0.03631436067297966	-0.11883945498794601	0.5114545838875507	0.02152653911162339	-0.09938323422659262	0.5924861527852104	0.012535993795984801	-0.11751524516067746	0.5794400175341098	0.02135849223225994	-0.10874245333869093	0.5593132291936894	0.030576943104776877	-0.09733576522991394	0.5236205460260386	0.018000000163903906	-0.08310292614012837	0.5939728470500637	0.002558506416485473	-0.09038487529638611	0.580617945078687	0.010127995137240164	-0.08281193439860479	0.5621852968576666	0.016142904710720773	-0.0747577205087851	0.5287798911822034	0.006184526637698307	-0.06549526787395427	0.4622830810018609	-0.023011742144276925	-0.051989820119430985
23	0.7999999999999965	0.5269112021187347	-0.010606494891403195	-0.1419001005870572	0.5046548653288827	-0.016024089250741502	-0.14008209507156916	0.4807188526282439	-0.023426383022925212	-0.12161338253102782	0.4728866563139881	-0.028615483127502506	-0.07800581505702592	0.5657633560422238	0.007643496622252277	-0.1521586039877118	0.5532162113367156	0.019687135632102004	-0.1471068796148401	0.5329582413031329	0.031435636905441044	-0.13796372912122962	0.49894259199830526	0.015948247015268868	-0.11755019315215309	0.5864608228104926	0.016444910567570692	-0.13904870354958854	0.5726670715871304	0.02551173884399094	-0.13159719013324844	0.5488389145129529	0.03637266837816716	-0.11880388367627709	0.511433627200939	0.02156547481620308	-0.0993683641070906	0.5924201644733967	0.01247575079607599	-0.11748627454506716	0.5794009420716523	0.02134548583650875	-0.10872113630506003	0.5592945505825364	0.03061218167144142	-0.09731756894263971	0.5235966295795322	0.01804836359334705	-0.08308627436470967	0.5939085154105119	0.0025345565720901186	-0.09035447388271489	0.580582391159119	0.010155716564792083	-0.0827826621575018	0.5621644450792473	0.016216096380853418	-0.07472890044734337	0.5287650292768121	0.00622571719170506	-0.06547931674249063	0.462283081001861	-0.023011742144276925	-0.051989820119430985
24	0.8333333333333297	0.5270616311678379	-0.010741712868177267	-0.14168953985838012	0.5047908940905623	-0.016146106616076072	-0.14001418967034884	0.48079470060277263	-0.02349460448777907	-0.12160217519267302	0.4729119434794271	-0.02861500488200197	-0.07799559724923433	0.5656338646429567	0.007478704150674642	-0.1519933327654882	0.553168252128629	0.019633502757532617	-0.14700641232604283	0.532946911154646	0.03149409961801264	-0.13792712577218386	0.4989282092423174	0.01597770333615567	-0.1175407219543324	0.5863257069276345	0.016298021842138022	-0.13896068860727984	0.5725972172162775	0.025481764286932718	-0.1315318633331976	0.5488101920880651	0.03646106373794583	-0.11876307446679463	0.5114098376515961	0.021607579208867134	-0.09935340145638821	0.5923276682290772	0.012410429588823768	-0.11741296916376054	0.5793501023832431	0.021357909224031246	-0.10866508982676754	0.5592666474045674	0.030692098253649824	-0.09727615966283831	0.5235687759252367	0.01810731535848631	-0.08306327658702328	0.5938085348656668	0.002493238238952533	-0.0903333222800336	0.5805308228988546	0.010196081549682434	-0.08275911804086	0.562133128146025	0.01631315960552171	-0.07470193473399173	0.5287462947869223	0.006280565511262437	-0.06545261773264766	0.4622830810018609	-0.023011742144276925	-0.051989820119430985
25	0.8666666666666629	0.5271424944741648	-0.010914175111666813	-0.14151933301043762	0.5048439147783611	-0.016247455751691176	-0.1399930757697888	0.48081195245379527	-0.023525263524692197	-0.12159964485410862	0.47292930713479153	-0.028612103064746375	-0.07798911898857325	0.5655782072234387	0.007379913358115497	-0.15185262344912726	0.5531500125850962	0.019597274086580074	-0.146925547758411	0.5329426526308666	0.0315272282257395	-0.13790620017015665	0.49892015799579814	0.016014567766719168	-0.11752328285467184	0.5862645405907972	0.016283698449402695	-0.13887471923051048	0.5725576938728272	0.025510163320610513	-0.13145887814332124	0.5487850150782011	0.03655058339749301	-0.11871609911151237	0.5113903659643374	0.021661735423207595	-0.09932253459516743	0.5922344497576315	0.012461324364487214	-0.11722715500969078	0.5792960129974526	0.021497400896473562	-0.10851244473849198	0.5592226050237676	0.03088561356463615	-0.0971502383409934	0.5235318047967841	0.018209087173414407	-0.08300127047014788	0.5937087573898573	0.002454018451680584	-0.09026664556487757	0.5804765871127842	0.010241219076835617	-0.08269900549797915	0.5620963101213529	0.016414222573852055	-0.07464472312497517	0.528711803991166	0.006395537954875463	-0.06537195870712204	0.4622830810018609	-0.023011742144276925	-0.051989820119430985
26	0.8999999999999961	0.5270152637001223	-0.010957132865227703	-0.14159660463253254	0.5046982710187778	-0.01622169319016631	-0.1401011975822946	0.48072403182742773	-0.023455529696487565	-0.12161532555537224	0.47290853573756453	-0.028602233198946392	-0.07799973815903982	0.5656553668042357	0.007349467312138702	-0.15189210330038921	0.5531933033638325	0.019535893046116692	-0.14697397330641732	0.5329645357817947	0.0314283031909699	-0.13795303233230127	0.49892669816553115	0.01602161243254485	-0.11751543011767879	0.5863099471028991	0.01631232062336274	-0.13887466888116556	0.5725821579716148	0.025500137745631757	-0.13144958826916314	0.5487983682781973	0.036519218337007886	-0.11870907176707235	0.5113880290239748	0.021679911801929297	-0.09930779811192392	0.5921933042144492	0.012533557499834092	-0.11705850853698135	0.5792591188853147	0.02160538704300108	-0.10837468687763496	0.55918775142911	0.03103808084193105	-0.09704576481357086	0.5234990795453459	0.018295495598332212	-0.08295087018882652	0.5936146004950994	0.002447418173646909	-0.09027119616447538	0.5804162700302216	0.01028658468358401	-0.08269811611938421	0.562053039266208	0.016491554639409656	-0.07462952747235996	0.5286735018393388	0.006519443778404188	-0.06528892057858371	0.4622830810018609	-0.023011742144276925	-0.051989820119430985
27	0.9333333333333294	0.5266348584372545	-0.010840522016051235	-0.14191915496311636	0.5043123669281813	-0.01605799515038353	-0.14034297384412314	0.4804992870457294	-0.023307503829276488	-0.1216560305299631	0.4728255859153817	-0.02860367893979754	-0.07803315992106341	0.5659156169186716	0.007325902248052962	-0.15222902557496282	0.5533206934529368	0.019342161036206007	-0.14723128332186336	0.5330319349225549	0.031076796720633237	-0.13813873496347545	0.4989710113598168	0.015935530098498685	-0.11754185109404619	0.5865725014569854	0.016333708871824837	-0.13900467316138249	0.5727442887948728	0.025343097759993327	-0.13154736490483732	0.5489069173120888	0.03622004313863936	-0.11878486789125453	0.5114361372514994	0.021596962297912747	-0.09933611293427824	0.5923006571613437	0.012566064933668852	-0.11696485053339634	0.5793177222611857	0.02159716503665421	-0.10831137537551216	0.5592152412812998	0.031003417049966453	-0.09701568325349563	0.5235082765365547	0.01828819261718262	-0.0829424259780287	0.5936147838163471	0.002489267146683294	-0.09044266361661973	0.5803997136326959	0.010279586815613362	-0.08284840002512839	0.5620334715689983	0.016423185111308913	-0.074739801413852	0.528665836402833	0.006555499814819399	-0.06524700618235485	0.462283081001861	-0.023011742144276925	-0.051989820119430985
28	0.9666666666666625	0.5258979769427132	-0.010572254274443638	-0.14267683094666783	0.5035938676437598	-0.0157548892138496	-0.14076188878952844	0.4800828233238692	-0.02309310394768327	-0.1217302992734558	0.4726713783066714	-0.028622471738541266	-0.07809102138540547	0.5664090304108814	0.007296127635382121	-0.15290870817210567	0.5535688634166589	0.018967885575016608	-0.14772217000497945	0.5331772566059688	0.030392686759007526	-0.13846657047904354	0.4990637500799229	0.015733808984565334	-0.11760938780996333	0.5870871033791759	0.016434602178228785	-0.1392870453876377	0.5730588777384268	0.025074217165781842	-0.13176601233099705	0.5491129572244514	0.035651343297408045	-0.1189548124053833	0.5115542057056226	0.021392428605791936	-0.09940560635592721	0.5926570848801938	0.012708299291936731	-0.11693807731827632	0.5795218541129233	0.02153927645623921	-0.10830792349495882	0.559322501713724	0.03077865456665585	-0.0970473713865711	0.523587787643468	0.018155823838591822	-0.08296137874396003	0.593840956412435	0.002728727734114811	-0.0905796294366581	0.5804872259853852	0.010275975866572362	-0.08298246356320216	0.562063196027372	0.016225205539891152	-0.0748600374847243	0.5287010991926786	0.006493287376115986	-0.06520893834285846	0.4622830810018609	-0.023011742144276925	-0.051989820119430985
